# xmcd CD database file
#
# Track frame offsets:
#	150
#	14118
#	26244
#	40767
#	53953
#	69285
#	81816
#	94078
#	107126
#	118570
#	130161
#	142298
#	154317
#	168852
#	182700
#	197511
#	211115
#	224856
#	238462
#	250309
#	263272
#	276510
#	290250
#	301821
#	315609
#
# Disc length: 4356 seconds
#
# Revision: 0
# Processed by: cddbd v1.5.2PL0 Copyright (c) Steve Scherf et al.
# Submitted via: CDex 1.51
#
DISCID=79110219
DTITLE=LUCKY THOMPSON - LUCKY MOMENTS
DYEAR=1945
DGENRE=Jazz
TTITLE0=AVENUE C
TTITLE1=I'M IN THE MOOD FOR LOVE
TTITLE2=NO GOOD MAN BLUES
TTITLE3=WHY NOT
TTITLE4=IRRESISIBLE YOU
TTITLE5=PHACE
TTITLE6=DODO'S BOUNCE
TTITLE7=DODO'S LAMENT
TTITLE8=SLAM'S MISHAP
TTITLE9=SCHUFFLE THAT RUFF
TTITLE10=SMOOTH SAILING
TTITLE11=COMMERCIAL EYES
TTITLE12=JUST ONE MORE CHANCE
TTITLE13=FROM DIXIELAND TO BOP
TTITLE14=BOULEVARD BOUNCE
TTITLE15=BOPPIN' THE BLUES
TTITLE16=STAY IN THERE
TTITLE17=OVER THE RAINBOW
TTITLE18=FLAMINGO
TTITLE19=MAMBO IN BLUES
TTITLE20=THE SCENE IS CLEAN
TTITLE21=THE NIGHT HAWK
TTITLE22=LITTLE BOY, BLOW
TTITLE23=MOONLIGHT IN VERMONT
TTITLE24=BUNNY
EXTD=YEAR: 1945
EXTT0=
EXTT1=
EXTT2=
EXTT3=
EXTT4=
EXTT5=
EXTT6=
EXTT7=
EXTT8=
EXTT9=
EXTT10=
EXTT11=
EXTT12=
EXTT13=
EXTT14=
EXTT15=
EXTT16=
EXTT17=
EXTT18=
EXTT19=
EXTT20=
EXTT21=
EXTT22=
EXTT23=
EXTT24=
PLAYORDER=
